<mxfile host="app.diagrams.net" modified="2023-04-25T16:16:34.435Z" agent="Mozilla/5.0 (Windows NT 10.0; Win64; x64) AppleWebKit/537.36 (KHTML, like Gecko) Chrome/111.0.0.0 Safari/537.36" etag="PbxTSOHfYLXc5PZ8-bfT" version="21.2.1" type="github">
  <diagram id="IgT9A1oyZjiULxz-okg6" name="Страница 2">
    <mxGraphModel dx="1880" dy="736" grid="1" gridSize="10" guides="1" tooltips="1" connect="1" arrows="1" fold="1" page="1" pageScale="1" pageWidth="1200" pageHeight="1920" math="0" shadow="0">
      <root>
        <mxCell id="0" />
        <mxCell id="1" parent="0" />
        <mxCell id="o4WtYM8BNyhouBetkFvV-5" value="Tbps Peak Data Rate" style="rounded=1;whiteSpace=wrap;html=1;fillColor=#d5e8d4;strokeColor=#82b366;" vertex="1" parent="1">
          <mxGeometry x="180" y="20" width="810" height="360" as="geometry" />
        </mxCell>
        <mxCell id="o4WtYM8BNyhouBetkFvV-6" value="Spectrum and Channel Modeling for 6G Enabled Massive IoT" style="text;whiteSpace=wrap;html=1;fontStyle=1;rounded=1;" vertex="1" parent="1">
          <mxGeometry x="390" y="40" width="360" height="40" as="geometry" />
        </mxCell>
        <mxCell id="o4WtYM8BNyhouBetkFvV-7" value="" style="rounded=1;whiteSpace=wrap;html=1;rotation=90;fillColor=#f5f5f5;fontColor=#333333;strokeColor=#666666;" vertex="1" parent="1">
          <mxGeometry x="221.08" y="90.77" width="166.25" height="144.69" as="geometry" />
        </mxCell>
        <mxCell id="o4WtYM8BNyhouBetkFvV-9" value="" style="rounded=1;whiteSpace=wrap;html=1;rotation=90;fillColor=#f5f5f5;fontColor=#333333;strokeColor=#666666;" vertex="1" parent="1">
          <mxGeometry x="460" y="67.85" width="166.99" height="190.54" as="geometry" />
        </mxCell>
        <mxCell id="o4WtYM8BNyhouBetkFvV-10" value="" style="rounded=1;whiteSpace=wrap;html=1;rotation=90;fillColor=#f5f5f5;fontColor=#333333;strokeColor=#666666;" vertex="1" parent="1">
          <mxGeometry x="723.01" y="68.92" width="166.99" height="188.39" as="geometry" />
        </mxCell>
        <mxCell id="o4WtYM8BNyhouBetkFvV-11" value="" style="rounded=1;whiteSpace=wrap;html=1;fillColor=#d5e8d4;strokeColor=#82b366;" vertex="1" parent="1">
          <mxGeometry x="244.21" y="100.93" width="120" height="20" as="geometry" />
        </mxCell>
        <mxCell id="o4WtYM8BNyhouBetkFvV-12" value="" style="rounded=1;whiteSpace=wrap;html=1;fillColor=#d5e8d4;strokeColor=#82b366;" vertex="1" parent="1">
          <mxGeometry x="249.69" y="160" width="106.87" height="20" as="geometry" />
        </mxCell>
        <mxCell id="o4WtYM8BNyhouBetkFvV-13" value="" style="rounded=1;whiteSpace=wrap;html=1;fillColor=#d5e8d4;strokeColor=#82b366;" vertex="1" parent="1">
          <mxGeometry x="250" y="130" width="106.87" height="20" as="geometry" />
        </mxCell>
        <mxCell id="o4WtYM8BNyhouBetkFvV-14" value="" style="rounded=1;whiteSpace=wrap;html=1;fillColor=#d5e8d4;strokeColor=#82b366;" vertex="1" parent="1">
          <mxGeometry x="249.69" y="190" width="106.87" height="20" as="geometry" />
        </mxCell>
        <mxCell id="o4WtYM8BNyhouBetkFvV-15" value="" style="rounded=1;whiteSpace=wrap;html=1;fillColor=#d5e8d4;strokeColor=#82b366;" vertex="1" parent="1">
          <mxGeometry x="250" y="220" width="106.87" height="20" as="geometry" />
        </mxCell>
        <mxCell id="o4WtYM8BNyhouBetkFvV-19" value="&lt;div&gt;Core Requirements&lt;/div&gt;&lt;div&gt;&lt;br&gt;&lt;/div&gt;" style="text;strokeColor=none;align=center;fillColor=none;html=1;verticalAlign=middle;whiteSpace=wrap;rounded=1;" vertex="1" parent="1">
          <mxGeometry x="233.13" y="80" width="140" height="30" as="geometry" />
        </mxCell>
        <mxCell id="o4WtYM8BNyhouBetkFvV-20" value="&lt;div&gt;Use Cases&lt;/div&gt;&lt;div&gt;&lt;br&gt;&lt;/div&gt;" style="text;strokeColor=none;align=center;fillColor=none;html=1;verticalAlign=middle;whiteSpace=wrap;rounded=1;" vertex="1" parent="1">
          <mxGeometry x="493.5" y="80" width="100" height="30" as="geometry" />
        </mxCell>
        <mxCell id="o4WtYM8BNyhouBetkFvV-21" value="eMBB&amp;nbsp;" style="rounded=1;whiteSpace=wrap;html=1;fillColor=#d5e8d4;strokeColor=#82b366;" vertex="1" parent="1">
          <mxGeometry x="460" y="100.62" width="40" height="19.38" as="geometry" />
        </mxCell>
        <mxCell id="o4WtYM8BNyhouBetkFvV-23" value="" style="rounded=1;whiteSpace=wrap;html=1;fillColor=#d5e8d4;strokeColor=#82b366;" vertex="1" parent="1">
          <mxGeometry x="586.99" y="100.62" width="40" height="19.38" as="geometry" />
        </mxCell>
        <mxCell id="o4WtYM8BNyhouBetkFvV-24" value="" style="rounded=1;whiteSpace=wrap;html=1;fillColor=#d5e8d4;strokeColor=#82b366;" vertex="1" parent="1">
          <mxGeometry x="523.5" y="100.62" width="40" height="19.38" as="geometry" />
        </mxCell>
        <mxCell id="o4WtYM8BNyhouBetkFvV-25" value="uRLLC" style="text;strokeColor=none;align=center;fillColor=none;html=1;verticalAlign=middle;whiteSpace=wrap;rounded=1;" vertex="1" parent="1">
          <mxGeometry x="513.5" y="95.93" width="60" height="30" as="geometry" />
        </mxCell>
        <mxCell id="o4WtYM8BNyhouBetkFvV-26" value="mMTC" style="text;strokeColor=none;align=center;fillColor=none;html=1;verticalAlign=middle;whiteSpace=wrap;rounded=1;" vertex="1" parent="1">
          <mxGeometry x="576.99" y="95.93" width="60" height="30" as="geometry" />
        </mxCell>
        <mxCell id="o4WtYM8BNyhouBetkFvV-27" value="" style="shape=singleArrow;direction=north;whiteSpace=wrap;html=1;rotation=-180;fillColor=#f8cecc;strokeColor=#b85450;arrowWidth=0.125213936047669;arrowSize=0.34985737596821687;rounded=1;" vertex="1" parent="1">
          <mxGeometry x="533.5" y="125" width="20" height="30" as="geometry" />
        </mxCell>
        <mxCell id="o4WtYM8BNyhouBetkFvV-28" value="" style="rounded=1;whiteSpace=wrap;html=1;fillColor=#d5e8d4;strokeColor=#82b366;" vertex="1" parent="1">
          <mxGeometry x="493.5" y="220" width="106.87" height="20" as="geometry" />
        </mxCell>
        <mxCell id="o4WtYM8BNyhouBetkFvV-29" value="" style="rounded=1;whiteSpace=wrap;html=1;fillColor=#d5e8d4;strokeColor=#82b366;" vertex="1" parent="1">
          <mxGeometry x="493.5" y="190" width="106.87" height="20" as="geometry" />
        </mxCell>
        <mxCell id="o4WtYM8BNyhouBetkFvV-30" value="" style="rounded=1;whiteSpace=wrap;html=1;fillColor=#d5e8d4;strokeColor=#82b366;" vertex="1" parent="1">
          <mxGeometry x="493" y="160" width="106.87" height="20" as="geometry" />
        </mxCell>
        <mxCell id="o4WtYM8BNyhouBetkFvV-32" value="" style="rounded=1;whiteSpace=wrap;html=1;fillColor=#d5e8d4;strokeColor=#82b366;" vertex="1" parent="1">
          <mxGeometry x="243.12" y="160" width="120" height="20" as="geometry" />
        </mxCell>
        <mxCell id="o4WtYM8BNyhouBetkFvV-33" value="" style="rounded=1;whiteSpace=wrap;html=1;fillColor=#d5e8d4;strokeColor=#82b366;" vertex="1" parent="1">
          <mxGeometry x="244.21000000000004" y="190" width="120" height="20" as="geometry" />
        </mxCell>
        <mxCell id="o4WtYM8BNyhouBetkFvV-34" value="" style="rounded=1;whiteSpace=wrap;html=1;fillColor=#d5e8d4;strokeColor=#82b366;" vertex="1" parent="1">
          <mxGeometry x="243.43000000000004" y="220" width="120" height="20" as="geometry" />
        </mxCell>
        <mxCell id="o4WtYM8BNyhouBetkFvV-35" value="" style="rounded=1;whiteSpace=wrap;html=1;fillColor=#d5e8d4;strokeColor=#82b366;" vertex="1" parent="1">
          <mxGeometry x="243.12" y="130" width="120" height="20" as="geometry" />
        </mxCell>
        <mxCell id="o4WtYM8BNyhouBetkFvV-36" value="High Reliability" style="text;strokeColor=none;align=center;fillColor=none;html=1;verticalAlign=middle;whiteSpace=wrap;rounded=1;" vertex="1" parent="1">
          <mxGeometry x="258.12" y="125" width="90" height="30" as="geometry" />
        </mxCell>
        <mxCell id="o4WtYM8BNyhouBetkFvV-37" value="Full Coverage" style="text;strokeColor=none;align=center;fillColor=none;html=1;verticalAlign=middle;whiteSpace=wrap;rounded=1;" vertex="1" parent="1">
          <mxGeometry x="249.69" y="95.93" width="110" height="30" as="geometry" />
        </mxCell>
        <mxCell id="o4WtYM8BNyhouBetkFvV-38" value="Sub-ms Latency" style="text;strokeColor=none;align=center;fillColor=none;html=1;verticalAlign=middle;whiteSpace=wrap;rounded=1;" vertex="1" parent="1">
          <mxGeometry x="248.12" y="155" width="110" height="30" as="geometry" />
        </mxCell>
        <mxCell id="o4WtYM8BNyhouBetkFvV-39" value="Tbps Peak Data Rate" style="text;strokeColor=none;align=center;fillColor=none;html=1;verticalAlign=middle;whiteSpace=wrap;rounded=1;" vertex="1" parent="1">
          <mxGeometry x="229.20999999999998" y="185" width="150" height="30" as="geometry" />
        </mxCell>
        <mxCell id="o4WtYM8BNyhouBetkFvV-40" value="Higher Energy" style="text;strokeColor=none;align=center;fillColor=none;html=1;verticalAlign=middle;whiteSpace=wrap;rounded=1;" vertex="1" parent="1">
          <mxGeometry x="259.69" y="215" width="90" height="30" as="geometry" />
        </mxCell>
        <mxCell id="o4WtYM8BNyhouBetkFvV-41" value="&lt;div&gt;Further Enhanced&lt;/div&gt;&lt;div&gt;&lt;br&gt;&lt;/div&gt;" style="text;strokeColor=none;align=center;fillColor=none;html=1;verticalAlign=middle;whiteSpace=wrap;rounded=1;" vertex="1" parent="1">
          <mxGeometry x="476.94" y="160" width="140" height="30" as="geometry" />
        </mxCell>
        <mxCell id="o4WtYM8BNyhouBetkFvV-42" value="&lt;div&gt;&lt;span style=&quot;background-color: initial;&quot;&gt;Privacy &amp;amp;&amp;nbsp;&lt;/span&gt;&lt;span style=&quot;background-color: initial;&quot;&gt;Security&lt;/span&gt;&lt;/div&gt;" style="text;strokeColor=none;align=center;fillColor=none;html=1;verticalAlign=middle;whiteSpace=wrap;rounded=1;" vertex="1" parent="1">
          <mxGeometry x="461.44" y="185" width="170" height="30" as="geometry" />
        </mxCell>
        <mxCell id="o4WtYM8BNyhouBetkFvV-43" value="Compound Ser-s&amp;nbsp;" style="text;strokeColor=none;align=center;fillColor=none;html=1;verticalAlign=middle;whiteSpace=wrap;rounded=1;" vertex="1" parent="1">
          <mxGeometry x="431.94" y="215" width="230" height="30" as="geometry" />
        </mxCell>
        <mxCell id="o4WtYM8BNyhouBetkFvV-44" value="&lt;div&gt;Trends&lt;/div&gt;&lt;div&gt;&lt;br&gt;&lt;/div&gt;" style="text;strokeColor=none;align=center;fillColor=none;html=1;verticalAlign=middle;whiteSpace=wrap;rounded=1;" vertex="1" parent="1">
          <mxGeometry x="718.5" y="80" width="170" height="30" as="geometry" />
        </mxCell>
        <mxCell id="o4WtYM8BNyhouBetkFvV-46" value="" style="rounded=1;whiteSpace=wrap;html=1;fillColor=#d5e8d4;strokeColor=#82b366;" vertex="1" parent="1">
          <mxGeometry x="720" y="110" width="170" height="34.07" as="geometry" />
        </mxCell>
        <mxCell id="o4WtYM8BNyhouBetkFvV-50" value="" style="rounded=1;whiteSpace=wrap;html=1;fillColor=#d5e8d4;strokeColor=#82b366;" vertex="1" parent="1">
          <mxGeometry x="720" y="155" width="170" height="34.07" as="geometry" />
        </mxCell>
        <mxCell id="o4WtYM8BNyhouBetkFvV-51" value="" style="rounded=1;whiteSpace=wrap;html=1;fillColor=#d5e8d4;strokeColor=#82b366;" vertex="1" parent="1">
          <mxGeometry x="723.01" y="201.39" width="170" height="34.07" as="geometry" />
        </mxCell>
        <mxCell id="o4WtYM8BNyhouBetkFvV-52" value="More Bits and Spectrum, and Denser Networks" style="text;strokeColor=none;align=center;fillColor=none;html=1;verticalAlign=middle;whiteSpace=wrap;rounded=1;" vertex="1" parent="1">
          <mxGeometry x="728.5" y="112.04" width="150" height="30" as="geometry" />
        </mxCell>
        <mxCell id="o4WtYM8BNyhouBetkFvV-53" value="&lt;div&gt;From Network Softwarization to&lt;/div&gt;&lt;div&gt;Network Intelligentization&lt;/div&gt;" style="text;strokeColor=none;align=center;fillColor=none;html=1;verticalAlign=middle;whiteSpace=wrap;rounded=1;" vertex="1" parent="1">
          <mxGeometry x="715" y="157.04" width="180" height="30" as="geometry" />
        </mxCell>
        <mxCell id="o4WtYM8BNyhouBetkFvV-54" value="&lt;div&gt;Convergence of Various Communication Systems&lt;/div&gt;&lt;div&gt;&lt;br&gt;&lt;/div&gt;" style="text;strokeColor=none;align=center;fillColor=none;html=1;verticalAlign=middle;whiteSpace=wrap;rounded=1;" vertex="1" parent="1">
          <mxGeometry x="730" y="210" width="160" height="30" as="geometry" />
        </mxCell>
        <mxCell id="o4WtYM8BNyhouBetkFvV-60" value="" style="html=1;shadow=0;dashed=0;align=center;verticalAlign=middle;shape=mxgraph.arrows2.triadArrow;dy=18.28;dx=30;arrowHead=40;rotation=-180;fillColor=#f8cecc;strokeColor=#b85450;rounded=1;" vertex="1" parent="1">
          <mxGeometry x="304.57" y="257.31" width="494.84" height="63.01" as="geometry" />
        </mxCell>
        <mxCell id="o4WtYM8BNyhouBetkFvV-66" value="" style="shape=process;whiteSpace=wrap;html=1;backgroundOutline=1;fillColor=#fff2cc;strokeColor=#d6b656;size=0.029411764705882353;rounded=1;" vertex="1" parent="1">
          <mxGeometry x="395" y="325.7" width="170" height="34.3" as="geometry" />
        </mxCell>
        <mxCell id="o4WtYM8BNyhouBetkFvV-71" value="&lt;div&gt;More Complex Scenario&lt;/div&gt;" style="text;strokeColor=none;align=center;fillColor=none;html=1;verticalAlign=middle;whiteSpace=wrap;rounded=1;" vertex="1" parent="1">
          <mxGeometry x="400" y="327.85" width="160" height="30" as="geometry" />
        </mxCell>
        <mxCell id="o4WtYM8BNyhouBetkFvV-74" value="" style="shape=process;whiteSpace=wrap;html=1;backgroundOutline=1;fillColor=#fff2cc;strokeColor=#d6b656;size=0.029411764705882353;rounded=1;" vertex="1" parent="1">
          <mxGeometry x="203.13" y="325.7" width="170" height="34.3" as="geometry" />
        </mxCell>
        <mxCell id="o4WtYM8BNyhouBetkFvV-75" value="loT-enabled Applications" style="text;strokeColor=none;align=center;fillColor=none;html=1;verticalAlign=middle;whiteSpace=wrap;rounded=1;" vertex="1" parent="1">
          <mxGeometry x="216.56" y="327.85" width="140" height="30" as="geometry" />
        </mxCell>
        <mxCell id="o4WtYM8BNyhouBetkFvV-76" value="" style="shape=process;whiteSpace=wrap;html=1;backgroundOutline=1;fillColor=#fff2cc;strokeColor=#d6b656;size=0.029411764705882353;rounded=1;" vertex="1" parent="1">
          <mxGeometry x="586.99" y="325.7" width="170" height="34.3" as="geometry" />
        </mxCell>
        <mxCell id="o4WtYM8BNyhouBetkFvV-78" value="More Robust Requirements" style="text;strokeColor=none;align=center;fillColor=none;html=1;verticalAlign=middle;whiteSpace=wrap;rounded=1;" vertex="1" parent="1">
          <mxGeometry x="596.99" y="330" width="150" height="30" as="geometry" />
        </mxCell>
        <mxCell id="o4WtYM8BNyhouBetkFvV-79" value="" style="shape=process;whiteSpace=wrap;html=1;backgroundOutline=1;fillColor=#fff2cc;strokeColor=#d6b656;size=0.029411764705882353;rounded=1;" vertex="1" parent="1">
          <mxGeometry x="780" y="325.7" width="180" height="34.3" as="geometry" />
        </mxCell>
        <mxCell id="o4WtYM8BNyhouBetkFvV-80" value="&lt;div&gt;Full Spectra/Coverage/&lt;/div&gt;&lt;div&gt;Intelligence/Distribution/Security&lt;/div&gt;" style="text;strokeColor=none;align=center;fillColor=none;html=1;verticalAlign=middle;whiteSpace=wrap;rounded=1;" vertex="1" parent="1">
          <mxGeometry x="830" y="312.85" width="80" height="60" as="geometry" />
        </mxCell>
        <mxCell id="o4WtYM8BNyhouBetkFvV-81" value="" style="shape=callout;whiteSpace=wrap;html=1;perimeter=calloutPerimeter;rounded=1;" vertex="1" parent="1">
          <mxGeometry x="860" y="30" width="100" height="70.93" as="geometry" />
        </mxCell>
        <mxCell id="o4WtYM8BNyhouBetkFvV-82" value="Section &lt;b&gt;&lt;font color=&quot;#df2020&quot;&gt;3&lt;/font&gt;&lt;/b&gt; Visions of &lt;b&gt;6G&lt;/b&gt;:" style="text;strokeColor=none;align=center;fillColor=none;html=1;verticalAlign=middle;whiteSpace=wrap;rounded=1;" vertex="1" parent="1">
          <mxGeometry x="870" y="37.849999999999994" width="80" height="30" as="geometry" />
        </mxCell>
        <mxCell id="o4WtYM8BNyhouBetkFvV-83" value="" style="rounded=1;whiteSpace=wrap;html=1;fillColor=#d5e8d4;strokeColor=#82b366;" vertex="1" parent="1">
          <mxGeometry x="216.56" y="455" width="720" height="330" as="geometry" />
        </mxCell>
        <mxCell id="o4WtYM8BNyhouBetkFvV-84" value="" style="rounded=1;whiteSpace=wrap;html=1;rotation=90;" vertex="1" parent="1">
          <mxGeometry x="221.61" y="516.52" width="234.37" height="208.04" as="geometry" />
        </mxCell>
        <mxCell id="o4WtYM8BNyhouBetkFvV-87" value="" style="rounded=1;whiteSpace=wrap;html=1;rotation=90;" vertex="1" parent="1">
          <mxGeometry x="452.81" y="516.52" width="234.37" height="208.04" as="geometry" />
        </mxCell>
        <mxCell id="o4WtYM8BNyhouBetkFvV-88" value="" style="rounded=1;whiteSpace=wrap;html=1;rotation=90;" vertex="1" parent="1">
          <mxGeometry x="686.31" y="516.52" width="234.37" height="208.04" as="geometry" />
        </mxCell>
        <mxCell id="o4WtYM8BNyhouBetkFvV-89" value="" style="rounded=1;whiteSpace=wrap;html=1;fillColor=#f8cecc;strokeColor=#b85450;" vertex="1" parent="1">
          <mxGeometry x="248.8" y="550" width="180" height="40" as="geometry" />
        </mxCell>
        <mxCell id="o4WtYM8BNyhouBetkFvV-90" value="" style="rounded=1;whiteSpace=wrap;html=1;fillColor=#f8cecc;strokeColor=#b85450;" vertex="1" parent="1">
          <mxGeometry x="248.8" y="595" width="180" height="40" as="geometry" />
        </mxCell>
        <mxCell id="o4WtYM8BNyhouBetkFvV-91" value="" style="rounded=1;whiteSpace=wrap;html=1;fillColor=#f8cecc;strokeColor=#b85450;" vertex="1" parent="1">
          <mxGeometry x="249.69" y="640" width="180" height="40" as="geometry" />
        </mxCell>
        <mxCell id="o4WtYM8BNyhouBetkFvV-92" value="" style="rounded=1;whiteSpace=wrap;html=1;fillColor=#f8cecc;strokeColor=#b85450;" vertex="1" parent="1">
          <mxGeometry x="248.8" y="684.56" width="180" height="40" as="geometry" />
        </mxCell>
        <mxCell id="o4WtYM8BNyhouBetkFvV-93" value="" style="rounded=1;whiteSpace=wrap;html=1;fillColor=#f8cecc;strokeColor=#b85450;" vertex="1" parent="1">
          <mxGeometry x="481.94" y="684.56" width="180" height="40" as="geometry" />
        </mxCell>
        <mxCell id="o4WtYM8BNyhouBetkFvV-94" value="" style="rounded=1;whiteSpace=wrap;html=1;fillColor=#f8cecc;strokeColor=#b85450;" vertex="1" parent="1">
          <mxGeometry x="481.94" y="620" width="180" height="40" as="geometry" />
        </mxCell>
        <mxCell id="o4WtYM8BNyhouBetkFvV-96" value="" style="rounded=1;whiteSpace=wrap;html=1;fillColor=#f8cecc;strokeColor=#b85450;" vertex="1" parent="1">
          <mxGeometry x="481.94" y="550" width="180" height="40" as="geometry" />
        </mxCell>
        <mxCell id="o4WtYM8BNyhouBetkFvV-98" value="" style="rounded=1;whiteSpace=wrap;html=1;fillColor=#f8cecc;strokeColor=#b85450;" vertex="1" parent="1">
          <mxGeometry x="716.5" y="684.56" width="180" height="40" as="geometry" />
        </mxCell>
        <mxCell id="o4WtYM8BNyhouBetkFvV-99" value="" style="rounded=1;whiteSpace=wrap;html=1;fillColor=#f8cecc;strokeColor=#b85450;" vertex="1" parent="1">
          <mxGeometry x="715" y="640" width="180" height="40" as="geometry" />
        </mxCell>
        <mxCell id="o4WtYM8BNyhouBetkFvV-100" value="" style="rounded=1;whiteSpace=wrap;html=1;fillColor=#f8cecc;strokeColor=#b85450;" vertex="1" parent="1">
          <mxGeometry x="715" y="595" width="180" height="40" as="geometry" />
        </mxCell>
        <mxCell id="o4WtYM8BNyhouBetkFvV-101" value="" style="rounded=1;whiteSpace=wrap;html=1;fillColor=#f8cecc;strokeColor=#b85450;" vertex="1" parent="1">
          <mxGeometry x="715" y="550" width="180" height="40" as="geometry" />
        </mxCell>
        <mxCell id="o4WtYM8BNyhouBetkFvV-103" value="&lt;div&gt;Section 2 - Drivers and Requirements&lt;/div&gt;&lt;div&gt;&lt;br&gt;&lt;/div&gt;" style="text;strokeColor=none;align=center;fillColor=none;html=1;verticalAlign=middle;whiteSpace=wrap;rounded=1;fontStyle=1" vertex="1" parent="1">
          <mxGeometry x="435.51" y="460" width="287.5" height="40" as="geometry" />
        </mxCell>
        <mxCell id="o4WtYM8BNyhouBetkFvV-104" value="&lt;div&gt;IoT-enabled Applications&lt;/div&gt;&lt;div&gt;&lt;br&gt;&lt;/div&gt;" style="text;strokeColor=none;align=center;fillColor=none;html=1;verticalAlign=middle;whiteSpace=wrap;rounded=1;" vertex="1" parent="1">
          <mxGeometry x="270" y="516.52" width="150" height="30" as="geometry" />
        </mxCell>
        <mxCell id="o4WtYM8BNyhouBetkFvV-105" value="&lt;div&gt;Requirements&lt;/div&gt;&lt;div&gt;&lt;br&gt;&lt;/div&gt;" style="text;strokeColor=none;align=center;fillColor=none;html=1;verticalAlign=middle;whiteSpace=wrap;rounded=1;" vertex="1" parent="1">
          <mxGeometry x="493" y="516.52" width="140" height="30" as="geometry" />
        </mxCell>
        <mxCell id="o4WtYM8BNyhouBetkFvV-106" value="&lt;div&gt;Limitations of 5G&lt;/div&gt;&lt;div&gt;&lt;br&gt;&lt;/div&gt;" style="text;strokeColor=none;align=center;fillColor=none;html=1;verticalAlign=middle;whiteSpace=wrap;rounded=1;" vertex="1" parent="1">
          <mxGeometry x="738.5" y="516.52" width="130" height="30" as="geometry" />
        </mxCell>
        <mxCell id="o4WtYM8BNyhouBetkFvV-107" value="Industry Internet" style="text;strokeColor=none;align=center;fillColor=none;html=1;verticalAlign=middle;whiteSpace=wrap;rounded=1;" vertex="1" parent="1">
          <mxGeometry x="258.8" y="555" width="160" height="30" as="geometry" />
        </mxCell>
        <mxCell id="o4WtYM8BNyhouBetkFvV-108" value="&lt;div&gt;Holographic Communication&lt;/div&gt;&lt;div&gt;&lt;br&gt;&lt;/div&gt;" style="text;strokeColor=none;align=center;fillColor=none;html=1;verticalAlign=middle;whiteSpace=wrap;rounded=1;" vertex="1" parent="1">
          <mxGeometry x="240" y="605.54" width="200" height="30" as="geometry" />
        </mxCell>
        <mxCell id="o4WtYM8BNyhouBetkFvV-109" value="&lt;div&gt;Wireless Brain Computer&lt;/div&gt;&lt;div&gt;Interface&lt;/div&gt;&lt;div&gt;&lt;br&gt;&lt;/div&gt;" style="text;strokeColor=none;align=center;fillColor=none;html=1;verticalAlign=middle;whiteSpace=wrap;rounded=1;" vertex="1" parent="1">
          <mxGeometry x="248.12" y="654.56" width="170" height="30" as="geometry" />
        </mxCell>
        <mxCell id="o4WtYM8BNyhouBetkFvV-110" value="&lt;div&gt;Five-sense Communication&lt;/div&gt;&lt;div&gt;&lt;br&gt;&lt;/div&gt;" style="text;strokeColor=none;align=center;fillColor=none;html=1;verticalAlign=middle;whiteSpace=wrap;rounded=1;" vertex="1" parent="1">
          <mxGeometry x="248.12" y="694.56" width="180" height="30" as="geometry" />
        </mxCell>
        <mxCell id="o4WtYM8BNyhouBetkFvV-111" value="&lt;div&gt;Higher Performance&lt;/div&gt;" style="text;strokeColor=none;align=center;fillColor=none;html=1;verticalAlign=middle;whiteSpace=wrap;rounded=1;" vertex="1" parent="1">
          <mxGeometry x="516.99" y="555" width="110" height="30" as="geometry" />
        </mxCell>
        <mxCell id="o4WtYM8BNyhouBetkFvV-113" value="&lt;div&gt;&lt;span style=&quot;background-color: initial;&quot;&gt;Covergence of Sensing, Control and Other&amp;nbsp;&lt;/span&gt;&amp;nbsp;Functions&lt;/div&gt;" style="text;strokeColor=none;align=center;fillColor=none;html=1;verticalAlign=middle;whiteSpace=wrap;rounded=1;" vertex="1" parent="1">
          <mxGeometry x="486.94" y="625" width="170" height="30" as="geometry" />
        </mxCell>
        <mxCell id="o4WtYM8BNyhouBetkFvV-114" value="&lt;div&gt;&amp;nbsp;&lt;/div&gt;&lt;div&gt;Rigorous Security&lt;/div&gt;&lt;div&gt;&lt;br&gt;&lt;/div&gt;" style="text;strokeColor=none;align=center;fillColor=none;html=1;verticalAlign=middle;whiteSpace=wrap;rounded=1;" vertex="1" parent="1">
          <mxGeometry x="505" y="689.56" width="130" height="30" as="geometry" />
        </mxCell>
        <mxCell id="o4WtYM8BNyhouBetkFvV-115" value="&lt;div&gt;Limited Date Rate and Latency&lt;/div&gt;&lt;div&gt;&lt;br&gt;&lt;/div&gt;" style="text;strokeColor=none;align=center;fillColor=none;html=1;verticalAlign=middle;whiteSpace=wrap;rounded=1;" vertex="1" parent="1">
          <mxGeometry x="716.5" y="560" width="180" height="30" as="geometry" />
        </mxCell>
        <mxCell id="o4WtYM8BNyhouBetkFvV-116" value="&lt;div&gt;Limited supporting Scenarios&lt;/div&gt;&lt;div&gt;&lt;br&gt;&lt;/div&gt;" style="text;strokeColor=none;align=center;fillColor=none;html=1;verticalAlign=middle;whiteSpace=wrap;rounded=1;" vertex="1" parent="1">
          <mxGeometry x="706.5" y="605" width="190" height="30" as="geometry" />
        </mxCell>
        <mxCell id="o4WtYM8BNyhouBetkFvV-117" value="Limited Coverage" style="text;strokeColor=none;align=center;fillColor=none;html=1;verticalAlign=middle;whiteSpace=wrap;rounded=1;" vertex="1" parent="1">
          <mxGeometry x="731.5" y="645" width="140" height="30" as="geometry" />
        </mxCell>
        <mxCell id="o4WtYM8BNyhouBetkFvV-118" value="&lt;div&gt;Lack Privacy and&lt;/div&gt;&lt;div&gt;Security&lt;/div&gt;" style="text;strokeColor=none;align=center;fillColor=none;html=1;verticalAlign=middle;whiteSpace=wrap;rounded=1;" vertex="1" parent="1">
          <mxGeometry x="690" y="689.56" width="220" height="30" as="geometry" />
        </mxCell>
        <mxCell id="o4WtYM8BNyhouBetkFvV-120" value="" style="shape=partialRectangle;whiteSpace=wrap;html=1;top=0;bottom=0;fillColor=none;rotation=-90;rounded=1;" vertex="1" parent="1">
          <mxGeometry x="538.69" y="612.5" width="66.5" height="55" as="geometry" />
        </mxCell>
        <mxCell id="o4WtYM8BNyhouBetkFvV-121" value="" style="shape=singleArrow;direction=north;whiteSpace=wrap;html=1;rotation=90;fillColor=#f8cecc;strokeColor=#b85450;arrowWidth=0.16066984558106015;arrowSize=0.3555553436279297;rounded=1;" vertex="1" parent="1">
          <mxGeometry x="444.25" y="630" width="17.19" height="15" as="geometry" />
        </mxCell>
        <mxCell id="o4WtYM8BNyhouBetkFvV-122" value="" style="rounded=1;whiteSpace=wrap;html=1;fillColor=#d5e8d4;strokeColor=#82b366;" vertex="1" parent="1">
          <mxGeometry x="138.12" y="830" width="401.88" height="300" as="geometry" />
        </mxCell>
        <mxCell id="o4WtYM8BNyhouBetkFvV-123" value="" style="rounded=1;whiteSpace=wrap;html=1;fillColor=#d5e8d4;strokeColor=#82b366;" vertex="1" parent="1">
          <mxGeometry x="615" y="830" width="390" height="300" as="geometry" />
        </mxCell>
        <mxCell id="o4WtYM8BNyhouBetkFvV-127" value="" style="rounded=1;whiteSpace=wrap;html=1;fillColor=#fff2cc;strokeColor=#d6b656;" vertex="1" parent="1">
          <mxGeometry x="169.69" y="850" width="180" height="40" as="geometry" />
        </mxCell>
        <mxCell id="o4WtYM8BNyhouBetkFvV-128" value="" style="rounded=1;whiteSpace=wrap;html=1;fillColor=#fff2cc;strokeColor=#d6b656;" vertex="1" parent="1">
          <mxGeometry x="168.12" y="900" width="180" height="40" as="geometry" />
        </mxCell>
        <mxCell id="o4WtYM8BNyhouBetkFvV-129" value="" style="rounded=1;whiteSpace=wrap;html=1;fillColor=#fff2cc;strokeColor=#d6b656;" vertex="1" parent="1">
          <mxGeometry x="168.12" y="950" width="180" height="40" as="geometry" />
        </mxCell>
        <mxCell id="o4WtYM8BNyhouBetkFvV-130" value="" style="rounded=1;whiteSpace=wrap;html=1;fillColor=#fff2cc;strokeColor=#d6b656;" vertex="1" parent="1">
          <mxGeometry x="168.12" y="1000" width="180" height="40" as="geometry" />
        </mxCell>
        <mxCell id="o4WtYM8BNyhouBetkFvV-131" value="" style="rounded=1;whiteSpace=wrap;html=1;fillColor=#f8cecc;strokeColor=#b85450;" vertex="1" parent="1">
          <mxGeometry x="395" y="930" width="126.99" height="45" as="geometry" />
        </mxCell>
        <mxCell id="o4WtYM8BNyhouBetkFvV-154" value="&lt;div&gt;Edge Computing&lt;/div&gt;&lt;div&gt;&lt;br&gt;&lt;/div&gt;" style="text;strokeColor=none;align=center;fillColor=none;html=1;verticalAlign=middle;whiteSpace=wrap;rounded=0;" vertex="1" parent="1">
          <mxGeometry x="383.5" y="945" width="150" height="30" as="geometry" />
        </mxCell>
        <mxCell id="o4WtYM8BNyhouBetkFvV-155" value="&lt;div&gt;Space-Tier: VLEO&lt;/div&gt;&lt;div&gt;&lt;br&gt;&lt;/div&gt;" style="text;strokeColor=none;align=center;fillColor=none;html=1;verticalAlign=middle;whiteSpace=wrap;rounded=0;" vertex="1" parent="1">
          <mxGeometry x="204.69" y="860" width="110" height="30" as="geometry" />
        </mxCell>
        <mxCell id="o4WtYM8BNyhouBetkFvV-156" value="&lt;div&gt;Air-Tier: UAV&lt;/div&gt;&lt;div&gt;&lt;br&gt;&lt;/div&gt;" style="text;strokeColor=none;align=center;fillColor=none;html=1;verticalAlign=middle;whiteSpace=wrap;rounded=0;" vertex="1" parent="1">
          <mxGeometry x="210" y="910" width="90" height="30" as="geometry" />
        </mxCell>
        <mxCell id="o4WtYM8BNyhouBetkFvV-157" value="&lt;div&gt;Ground-Tier: Terahertz.&lt;/div&gt;&lt;div&gt;Comm. and VLC&lt;/div&gt;" style="text;strokeColor=none;align=center;fillColor=none;html=1;verticalAlign=middle;whiteSpace=wrap;rounded=0;" vertex="1" parent="1">
          <mxGeometry x="183.12" y="955" width="150" height="30" as="geometry" />
        </mxCell>
        <mxCell id="o4WtYM8BNyhouBetkFvV-158" value="&lt;div&gt;Underwater-Tier: Optical&lt;/div&gt;&lt;div&gt;Communications&lt;/div&gt;" style="text;strokeColor=none;align=center;fillColor=none;html=1;verticalAlign=middle;whiteSpace=wrap;rounded=0;" vertex="1" parent="1">
          <mxGeometry x="173.12" y="1005" width="160" height="30" as="geometry" />
        </mxCell>
        <mxCell id="o4WtYM8BNyhouBetkFvV-159" value="&lt;div&gt;Section 4. Network Architecture for 6G-enabled&lt;/div&gt;&lt;div&gt;Massive IT: Space-Air-Ground-Underwater&lt;/div&gt;&lt;div&gt;Networks with Edge Computing&lt;/div&gt;" style="text;strokeColor=none;align=center;fillColor=none;html=1;verticalAlign=middle;whiteSpace=wrap;rounded=0;fontStyle=4" vertex="1" parent="1">
          <mxGeometry x="158.12" y="1080" width="261.88" height="20" as="geometry" />
        </mxCell>
        <mxCell id="o4WtYM8BNyhouBetkFvV-161" value="" style="verticalLabelPosition=bottom;verticalAlign=top;html=1;shape=mxgraph.basic.diag_snip_rect;dx=6;whiteSpace=wrap;rounded=1;fillColor=#f5f5f5;fontColor=#333333;strokeColor=#666666;" vertex="1" parent="1">
          <mxGeometry x="408.35" y="1000" width="100" height="40" as="geometry" />
        </mxCell>
        <mxCell id="o4WtYM8BNyhouBetkFvV-162" value="&lt;div&gt;Storage and Computation&lt;/div&gt;&lt;div&gt;&lt;br&gt;&lt;/div&gt;" style="text;strokeColor=none;align=center;fillColor=none;html=1;verticalAlign=middle;whiteSpace=wrap;rounded=0;" vertex="1" parent="1">
          <mxGeometry x="408.35" y="1010" width="100.31" height="30" as="geometry" />
        </mxCell>
        <mxCell id="o4WtYM8BNyhouBetkFvV-163" value="" style="shape=singleArrow;direction=north;whiteSpace=wrap;html=1;rotation=-180;fillColor=#f8cecc;strokeColor=#b85450;arrowWidth=0.16066984558106015;arrowSize=0.3555553436279297;rounded=1;" vertex="1" parent="1">
          <mxGeometry x="449.9" y="982.5" width="17.19" height="15" as="geometry" />
        </mxCell>
        <mxCell id="o4WtYM8BNyhouBetkFvV-166" value="" style="verticalLabelPosition=bottom;verticalAlign=top;html=1;shape=mxgraph.basic.diag_snip_rect;dx=6;whiteSpace=wrap;rounded=1;fillColor=#f5f5f5;fontColor=#333333;strokeColor=#666666;" vertex="1" parent="1">
          <mxGeometry x="646.99" y="870" width="153.01" height="40" as="geometry" />
        </mxCell>
        <mxCell id="o4WtYM8BNyhouBetkFvV-167" value="" style="verticalLabelPosition=bottom;verticalAlign=top;html=1;shape=mxgraph.basic.diag_snip_rect;dx=6;whiteSpace=wrap;rounded=1;fillColor=#f5f5f5;fontColor=#333333;strokeColor=#666666;" vertex="1" parent="1">
          <mxGeometry x="820" y="870" width="153.01" height="40" as="geometry" />
        </mxCell>
        <mxCell id="o4WtYM8BNyhouBetkFvV-168" value="" style="rounded=1;whiteSpace=wrap;html=1;fillColor=#f8cecc;strokeColor=#b85450;" vertex="1" parent="1">
          <mxGeometry x="646.99" y="940" width="153.01" height="45" as="geometry" />
        </mxCell>
        <mxCell id="o4WtYM8BNyhouBetkFvV-169" value="" style="rounded=1;whiteSpace=wrap;html=1;fillColor=#f8cecc;strokeColor=#b85450;" vertex="1" parent="1">
          <mxGeometry x="820" y="940" width="153.01" height="45" as="geometry" />
        </mxCell>
        <mxCell id="o4WtYM8BNyhouBetkFvV-170" value="" style="shape=singleArrow;direction=north;whiteSpace=wrap;html=1;rotation=0;fillColor=#f8cecc;strokeColor=#b85450;arrowWidth=0.14047154017857794;arrowSize=0.3317458379836315;rounded=1;" vertex="1" parent="1">
          <mxGeometry x="712" y="915" width="16.5" height="20" as="geometry" />
        </mxCell>
        <mxCell id="o4WtYM8BNyhouBetkFvV-172" value="" style="shape=singleArrow;direction=north;whiteSpace=wrap;html=1;rotation=0;fillColor=#f8cecc;strokeColor=#b85450;arrowWidth=0.14047154017857794;arrowSize=0.3317458379836315;rounded=1;" vertex="1" parent="1">
          <mxGeometry x="893.5000000000001" y="915" width="16.5" height="20" as="geometry" />
        </mxCell>
        <mxCell id="o4WtYM8BNyhouBetkFvV-174" value="&lt;div&gt;Intelligence and Automation&lt;/div&gt;&lt;div&gt;&lt;br&gt;&lt;/div&gt;" style="text;strokeColor=none;align=center;fillColor=none;html=1;verticalAlign=middle;whiteSpace=wrap;rounded=0;" vertex="1" parent="1">
          <mxGeometry x="663.1999999999999" y="880" width="120.59" height="30" as="geometry" />
        </mxCell>
        <mxCell id="o4WtYM8BNyhouBetkFvV-175" value="&lt;div&gt;Distribution and Security&lt;/div&gt;&lt;div&gt;&lt;br&gt;&lt;/div&gt;" style="text;strokeColor=none;align=center;fillColor=none;html=1;verticalAlign=middle;whiteSpace=wrap;rounded=0;" vertex="1" parent="1">
          <mxGeometry x="856.51" y="880" width="80" height="30" as="geometry" />
        </mxCell>
        <mxCell id="o4WtYM8BNyhouBetkFvV-177" value="&lt;div&gt;A. Machine Leaming&lt;/div&gt;&lt;div&gt;&lt;br&gt;&lt;/div&gt;" style="text;strokeColor=none;align=center;fillColor=none;html=1;verticalAlign=middle;whiteSpace=wrap;rounded=0;" vertex="1" parent="1">
          <mxGeometry x="660" y="952.5" width="120" height="30" as="geometry" />
        </mxCell>
        <mxCell id="o4WtYM8BNyhouBetkFvV-178" value="&lt;div&gt;&lt;span style=&quot;background-color: initial;&quot;&gt;B. Blockchain&lt;/span&gt;&lt;br&gt;&lt;/div&gt;" style="text;strokeColor=none;align=center;fillColor=none;html=1;verticalAlign=middle;whiteSpace=wrap;rounded=0;" vertex="1" parent="1">
          <mxGeometry x="846.51" y="945" width="90" height="30" as="geometry" />
        </mxCell>
        <mxCell id="o4WtYM8BNyhouBetkFvV-179" value="&lt;div&gt;&lt;br&gt;&lt;/div&gt;" style="text;strokeColor=none;align=center;fillColor=none;html=1;verticalAlign=middle;whiteSpace=wrap;rounded=0;fontStyle=4" vertex="1" parent="1">
          <mxGeometry x="700" y="1020" width="230" height="30" as="geometry" />
        </mxCell>
        <mxCell id="o4WtYM8BNyhouBetkFvV-180" value="" style="shape=singleArrow;direction=north;whiteSpace=wrap;html=1;rotation=-180;fillColor=#f8cecc;strokeColor=#b85450;arrowWidth=0.14047154017857794;arrowSize=0.3317458379836315;rounded=1;" vertex="1" parent="1">
          <mxGeometry x="803.5" y="997.5" width="16.5" height="20" as="geometry" />
        </mxCell>
        <mxCell id="o4WtYM8BNyhouBetkFvV-184" value="" style="shape=link;html=1;rounded=1;width=-0.14084507042253414;exitX=1;exitY=0;exitDx=0;exitDy=0;entryX=0.894;entryY=0.964;entryDx=0;entryDy=0;entryPerimeter=0;" edge="1" parent="1" source="o4WtYM8BNyhouBetkFvV-186" target="o4WtYM8BNyhouBetkFvV-189">
          <mxGeometry width="100" relative="1" as="geometry">
            <mxPoint x="761.75" y="997.25" as="sourcePoint" />
            <mxPoint x="861.75" y="997.25" as="targetPoint" />
            <Array as="points">
              <mxPoint x="801.75" y="997.25" />
              <mxPoint x="821.75" y="997.25" />
              <mxPoint x="831.75" y="997.25" />
            </Array>
          </mxGeometry>
        </mxCell>
        <mxCell id="o4WtYM8BNyhouBetkFvV-187" value="" style="shape=link;html=1;rounded=1;width=-0.14084507042253414;" edge="1" parent="1" target="o4WtYM8BNyhouBetkFvV-186">
          <mxGeometry width="100" relative="1" as="geometry">
            <mxPoint x="761.75" y="997.25" as="sourcePoint" />
            <mxPoint x="861.75" y="997.25" as="targetPoint" />
            <Array as="points" />
          </mxGeometry>
        </mxCell>
        <mxCell id="o4WtYM8BNyhouBetkFvV-186" value="" style="shape=partialRectangle;whiteSpace=wrap;html=1;top=0;left=0;fillColor=none;rounded=1;rotation=90;" vertex="1" parent="1">
          <mxGeometry x="756.99" y="982.5" width="8" height="20.5" as="geometry" />
        </mxCell>
        <mxCell id="o4WtYM8BNyhouBetkFvV-189" value="" style="shape=partialRectangle;whiteSpace=wrap;html=1;top=0;left=0;fillColor=none;rounded=1;" vertex="1" parent="1">
          <mxGeometry x="848.5" y="987.5" width="11.5" height="10" as="geometry" />
        </mxCell>
        <mxCell id="o4WtYM8BNyhouBetkFvV-192" value="Section 5. Breakthrough Technologies" style="text;strokeColor=none;align=center;fillColor=none;html=1;verticalAlign=middle;whiteSpace=wrap;rounded=0;fontStyle=4" vertex="1" parent="1">
          <mxGeometry x="703.49" y="1090" width="220" height="30" as="geometry" />
        </mxCell>
        <mxCell id="o4WtYM8BNyhouBetkFvV-193" value="" style="shape=process;whiteSpace=wrap;html=1;backgroundOutline=1;fillColor=#fff2cc;strokeColor=#d6b656;size=0.029411764705882353;rounded=1;" vertex="1" parent="1">
          <mxGeometry x="720" y="1020" width="187" height="50" as="geometry" />
        </mxCell>
        <mxCell id="o4WtYM8BNyhouBetkFvV-194" value="Data and Model Sharing, Decentralized Intelligence, and Trust for Decision-making" style="text;strokeColor=none;align=center;fillColor=none;html=1;verticalAlign=middle;whiteSpace=wrap;rounded=0;" vertex="1" parent="1">
          <mxGeometry x="730.24" y="1030" width="166.51" height="30" as="geometry" />
        </mxCell>
        <mxCell id="o4WtYM8BNyhouBetkFvV-197" value="" style="rounded=1;whiteSpace=wrap;html=1;fillColor=#dae8fc;strokeColor=#6c8ebf;rotation=-90;" vertex="1" parent="1">
          <mxGeometry x="920.68" y="590" width="240" height="60" as="geometry" />
        </mxCell>
        <mxCell id="o4WtYM8BNyhouBetkFvV-199" value="Sabergaliyeva Laura &amp;amp; Utkelbayeva Genevieva" style="text;strokeColor=none;align=center;fillColor=none;html=1;verticalAlign=middle;whiteSpace=wrap;rounded=0;rotation=-90;fontStyle=1;fontSize=15;" vertex="1" parent="1">
          <mxGeometry x="954.93" y="610" width="171.5" height="30" as="geometry" />
        </mxCell>
        <mxCell id="o4WtYM8BNyhouBetkFvV-200" value="" style="shape=singleArrow;direction=north;whiteSpace=wrap;html=1;rounded=1;arrowWidth=0.12929516601562152;arrowSize=0.4222223917643214;fillColor=#f8cecc;strokeColor=#b85450;" vertex="1" parent="1">
          <mxGeometry x="545.19" y="390" width="60" height="50" as="geometry" />
        </mxCell>
        <mxCell id="o4WtYM8BNyhouBetkFvV-201" value="" style="shape=singleArrow;direction=north;whiteSpace=wrap;html=1;rounded=1;arrowWidth=0.12929516601562152;arrowSize=0.4222223917643214;fillColor=#f8cecc;strokeColor=#b85450;" vertex="1" parent="1">
          <mxGeometry x="332.71" y="785" width="46.5" height="40" as="geometry" />
        </mxCell>
        <mxCell id="o4WtYM8BNyhouBetkFvV-202" value="" style="shape=singleArrow;direction=north;whiteSpace=wrap;html=1;rounded=1;arrowWidth=0.12929516601562152;arrowSize=0.4222223917643214;fillColor=#f8cecc;strokeColor=#b85450;" vertex="1" parent="1">
          <mxGeometry x="737.74" y="785" width="46.5" height="40" as="geometry" />
        </mxCell>
      </root>
    </mxGraphModel>
  </diagram>
</mxfile>
